# xmcd
#
# Track frame offsets:
#	150
#	14462
#	30922
#	39377
#	56087
#	68597
#	92627
#	103270
#	114705
#	129767
#	145302
#	157127
#	182127
#	183972
#	185830
#	187450
#	188862
#
# Disc length: 2690 seconds
#
# Revision: 1
# Processed by: cddbd v1.4b42PL1 Copyright (c) Steve Scherf et al.
# Submitted via: audiograbber 1.80
#
DISCID=f60a8011
DTITLE=The Reals - Partly Cloudy
DYEAR=1900
DGENRE=
TTITLE0=Partly Cloudy
TTITLE1=Put Me In My Child
TTITLE2=Warm Up To You
TTITLE3=You Ain't 'Goin Nowhere
TTITLE4=Peter's Song
TTITLE5=Will The Circle Be Unbroken
TTITLE6=Million Dollars
TTITLE7=Lushes Louie
TTITLE8=Half Off
TTITLE9=Rooster Eggs, Over Easy
TTITLE10=Miskyte Blues
TTITLE11=Wait On Time
TTITLE12=Untitled
TTITLE13=Untitled
TTITLE14=Untitled
TTITLE15=Untitled
TTITLE16=Untitled
EXTD=
EXTT0=
EXTT1=
EXTT2=
EXTT3=
EXTT4=
EXTT5=
EXTT6=
EXTT7=
EXTT8=
EXTT9=
EXTT10=
EXTT11=
EXTT12=
EXTT13=
EXTT14=
EXTT15=
EXTT16=
PLAYORDER=
